<svg xmlns="http://www.w3.org/2000/svg" viewBox="0 0 638.33 322.65"><path d="M9,304.65H629.33a9,9,0,0,1,9,9h0a9,9,0,0,1-9,9H9a9,9,0,0,1-9-9H0A9,9,0,0,1,9,304.65Z" fill="#c9c9c9"/><path d="M125.73,229.64a17.35,17.35,0,0,1,0-34.69h98v34.69Z" fill="#cecece"/><path d="M125.73,189H229.44v46.68H125.73a23.34,23.34,0,0,1-23.34-23.34h0A23.34,23.34,0,0,1,125.73,189Z" fill="#fff"/><path d="M223.76,208.91H119.39a2,2,0,0,1,0-4H223.76a2,2,0,0,1,0,4Z" fill="#1f3969"/><path d="M223.76,219.5H119.39a2,2,0,1,1,0-4H223.76a2,2,0,0,1,0,4Z" fill="#1f3969"/><path d="M223.76,231.64h-98a19.35,19.35,0,0,1,0-38.69h98a2,2,0,0,1,2,2v34.69A2,2,0,0,1,223.76,231.64Zm-98-34.69a15.34,15.34,0,0,0,0,30.68h96V197Z" fill="#1f3969"/><path d="M125.73,229.64a17.35,17.35,0,0,1,0-34.69h99.71l4-6H125.73a23.34,23.34,0,0,0-23.34,23.34h0a23.36,23.36,0,0,0,23.34,23.35H229.44l-4-6Z" fill="#ff3e3e"/><path d="M229.44,237.64H125.73a25.35,25.35,0,0,1,0-50.69H229.44a2,2,0,0,1,1.66,3.11l-4,6a2,2,0,0,1-1.66.89H125.73a15.35,15.35,0,0,0,0,30.69h99.71a2,2,0,0,1,1.66.89l4,6a2,2,0,0,1-.55,2.77A2.1,2.1,0,0,1,229.44,237.64ZM125.73,191a21.34,21.34,0,0,0,0,42.68h100l-1.34-2H125.73a19.34,19.34,0,0,1,0-38.68h98.64l1.34-2Z" fill="#1f3969"/><g opacity="0.28"><rect x="188.75" y="188.95" width="18.39" height="46.68" fill="#1f3969"/><path d="M207.14,237.64H188.75a2,2,0,0,1-2-2V189a2,2,0,0,1,2-2h18.39a2,2,0,0,1,2,2v46.68a2,2,0,0,1-2,2Zm-16.39-4h14.39V191H190.75Z" fill="#1f3969"/></g><rect x="22.11" y="235.64" width="203.43" height="38.56" rx="6.76" fill="#50b56f"/><path d="M218.77,276.19H28.87a8.77,8.77,0,0,1-8.76-8.76v-25a8.77,8.77,0,0,1,8.76-8.76h189.9a8.76,8.76,0,0,1,8.76,8.76v25A8.76,8.76,0,0,1,218.77,276.19ZM28.87,237.64a4.77,4.77,0,0,0-4.76,4.76v25a4.77,4.77,0,0,0,4.76,4.76h189.9a4.76,4.76,0,0,0,4.76-4.76v-25a4.76,4.76,0,0,0-4.76-4.76Z" fill="#1f3969"/><g opacity="0.28"><path d="M218.77,235.64h-30v15a17.06,17.06,0,0,0,17.06,17.06h19.71c0-.09,0-.18,0-.27v-25a6.76,6.76,0,0,0-6.77-6.76Z" fill="#1f3969"/><path d="M225.52,269.69H205.81a19.08,19.08,0,0,1-19.06-19.06v-15a2,2,0,0,1,2-2h30a8.77,8.77,0,0,1,8.76,8.76v25a2.71,2.71,0,0,1,0,.29A2.09,2.09,0,0,1,225.52,269.69Zm-34.77-32.05v13a15.08,15.08,0,0,0,15.06,15.06h17.72V242.4a4.76,4.76,0,0,0-4.76-4.76Z" fill="#1f3969"/></g><path d="M272.23,281.93H52.28a32.76,32.76,0,0,1,0,22.72h220A32.76,32.76,0,0,1,272.23,281.93Z" fill="#cecece"/><rect x="46.32" y="275.89" width="231.87" height="6.04" fill="#5f5aff"/><path d="M278.19,283.93H46.32a2,2,0,0,1-2-2v-6a2,2,0,0,1,2-2H278.19a2,2,0,0,1,2,2v6A2,2,0,0,1,278.19,283.93Zm-229.87-4H276.19v-2H48.32Z" fill="#1f3969"/><rect x="46.32" y="304.65" width="231.87" height="6.04" fill="#f6f9fd"/><rect x="46.32" y="304.65" width="231.87" height="6.04" fill="#5f5aff"/><path d="M278.19,312.69H46.32a2,2,0,0,1-2-2v-6a2,2,0,0,1,2-2H278.19a2,2,0,0,1,2,2v6a2,2,0,0,1-2,2Zm-229.87-4H276.19v-2H48.32Z" fill="#1f3969"/><path d="M393.47,289.35l-3-33.66H341.05l-3,33.66c-.7,7.81-5.4,15.3-12.78,21.27v.07h81v-.07C398.87,304.65,394.17,297.16,393.47,289.35Z" fill="#bfcfe2"/><g opacity="0.28"><polygon points="341.05 255.69 339.24 275.89 392.26 275.89 390.46 255.69 341.05 255.69" fill="#1f3969"/><path d="M392.27,277.89h-53a2,2,0,0,1-2-2,1.09,1.09,0,0,1,0-.18l1.81-20.2a2,2,0,0,1,2-1.82h49.41a2,2,0,0,1,2,1.82l1.81,20.2a2,2,0,0,1-1.82,2.17Zm-50.84-4h48.65l-1.45-16.2H342.88Z" fill="#1f3969"/></g><path d="M406.26,312.69h-81a2,2,0,0,1-2-2,1.93,1.93,0,0,1,0-.24,2.17,2.17,0,0,1,.74-1.38c7.13-5.78,11.41-12.85,12-19.9l3-33.66a2,2,0,0,1,2-1.82h49.41a2,2,0,0,1,2,1.82l3,33.66h0c.63,7.05,4.91,14.12,12.05,19.9a2,2,0,0,1,.72,1.31,2.06,2.06,0,0,1-.48,1.6A2,2,0,0,1,406.26,312.69Zm-75.9-4h70.78c-5.68-5.76-9.06-12.43-9.67-19.17l-2.85-31.83H342.88L340,289.52C339.42,296.26,336,302.93,330.36,308.69Z" fill="#1f3969"/><rect x="195.75" y="30.69" width="340" height="230" rx="12" fill="#fff"/><rect x="195.75" y="30.69" width="340" height="230" rx="12" fill="#bfcfe2"/><path d="M523.75,262.69h-316a14,14,0,0,1-14-14v-206a14,14,0,0,1,14-14h316a14,14,0,0,1,14,14v206A14,14,0,0,1,523.75,262.69Zm-316-230a10,10,0,0,0-10,10v206a10,10,0,0,0,10,10h316a10,10,0,0,0,10-10v-206a10,10,0,0,0-10-10Z" fill="#1f3969"/><rect x="212.75" y="47.69" width="306" height="174.59" fill="#f6f9fd"/><g opacity="0.28"><path d="M223.77,30.69v138.6a8,8,0,0,0,8,8H420.84a8,8,0,0,0,8-8V30.69Z" fill="#1f3969"/><path d="M420.84,179.29H231.77a10,10,0,0,1-10-10V30.69a2,2,0,0,1,2-2H428.84a2,2,0,0,1,2,2v138.6A10,10,0,0,1,420.84,179.29ZM225.77,32.69v136.6a6,6,0,0,0,6,6H420.84a6,6,0,0,0,6-6V32.69Z" fill="#1f3969"/></g><path d="M518.75,224.28h-306a2,2,0,0,1-2-2V47.69a2,2,0,0,1,2-2h306a2,2,0,0,1,2,2V222.28A2,2,0,0,1,518.75,224.28Zm-304-4h302V49.69h-302Z" fill="#1f3969"/><path d="M379.2,243.39H352.31a2,2,0,0,1,0-4H379.2a2,2,0,0,1,0,4Z" fill="#1f3969"/><rect x="232.77" y="2" width="205.07" height="164.29" rx="8" fill="#2d425e"/><path d="M437.84,23.45H232.77a2,2,0,0,1-2-2V10a10,10,0,0,1,10-10H429.84a10,10,0,0,1,10,10V21.45A2,2,0,0,1,437.84,23.45Zm-203.07-4H435.84V10a6,6,0,0,0-6-6H240.77a6,6,0,0,0-6,6Z" fill="#1f3969"/><path d="M240.77,2H429.84a8,8,0,0,1,8,8V25.26H232.77V10A8,8,0,0,1,240.77,2Z" fill="#d0ddf0"/><path d="M437.84,27.26H232.77a2,2,0,0,1-2-2V10a10,10,0,0,1,10-10H429.84a10,10,0,0,1,10,10V25.26A2,2,0,0,1,437.84,27.26Zm-203.07-4H435.84V10a6,6,0,0,0-6-6H240.77a6,6,0,0,0-6,6Z" fill="#1f3969"/><path d="M437.84,27.26H232.77a2,2,0,0,1-2-2V10a10,10,0,0,1,10-10H429.84a10,10,0,0,1,10,10V25.26A2,2,0,0,1,437.84,27.26Zm-203.07-4H435.84V10a6,6,0,0,0-6-6H240.77a6,6,0,0,0-6,6Z" fill="#1f3969"/><path d="M429.84,168.29H240.77a10,10,0,0,1-10-10V10a10,10,0,0,1,10-10H429.84a10,10,0,0,1,10,10V158.29A10,10,0,0,1,429.84,168.29ZM240.77,4a6,6,0,0,0-6,6V158.29a6,6,0,0,0,6,6H429.84a6,6,0,0,0,6-6V10a6,6,0,0,0-6-6Z" fill="#1f3969"/><g opacity="0.28"><rect x="404.51" y="62.75" width="132.02" height="138.94" rx="8" fill="#1f3969"/><path d="M528.53,203.69h-116a10,10,0,0,1-10-10V70.75a10,10,0,0,1,10-10h116a10,10,0,0,1,10,10V193.69A10,10,0,0,1,528.53,203.69Zm-116-138.94a6,6,0,0,0-6,6V193.69a6,6,0,0,0,6,6h116a6,6,0,0,0,6-6V70.75a6,6,0,0,0-6-6Z" fill="#1f3969"/></g><rect x="412.51" y="55.75" width="132.02" height="138.94" rx="8" fill="#2aa1ff"/><path d="M536.53,196.69h-116a10,10,0,0,1-10-10V63.75a10,10,0,0,1,10-10h116a10,10,0,0,1,10,10V186.69A10,10,0,0,1,536.53,196.69Zm-116-138.94a6,6,0,0,0-6,6V186.69a6,6,0,0,0,6,6h116a6,6,0,0,0,6-6V63.75a6,6,0,0,0-6-6Z" fill="#1f3969"/><rect x="432.53" y="75.68" width="91.9" height="18.13" rx="5.17" fill="none" stroke="#fff" stroke-linecap="round" stroke-linejoin="round" stroke-width="2" opacity="0.34" style="isolation:isolate"/><g opacity="0.34"><rect x="432.61" y="104.99" width="55.98" height="18.13" rx="5.17" stroke-width="2" stroke="#fff" stroke-linecap="round" stroke-linejoin="round" fill="none"/><rect x="496.52" y="104.99" width="27.99" height="18.13" rx="5.17" stroke-width="2" stroke="#fff" stroke-linecap="round" stroke-linejoin="round" fill="none"/></g><line x1="432.53" y1="153.58" x2="524.43" y2="153.58" fill="none" stroke="#fff" stroke-linecap="round" stroke-linejoin="round" stroke-width="2"/><line x1="432.53" y1="164.37" x2="524.43" y2="164.37" fill="none" stroke="#fff" stroke-linecap="round" stroke-linejoin="round" stroke-width="2"/><line x1="432.53" y1="175.16" x2="488.51" y2="175.16" fill="none" stroke="#fff" stroke-linecap="round" stroke-linejoin="round" stroke-width="2"/><circle cx="252.84" cy="13.63" r="4" fill="#1f3969"/><circle cx="266.72" cy="13.63" r="4" fill="#1f3969"/><circle cx="280.61" cy="13.63" r="4" fill="#1f3969"/><line x1="350.58" y1="43.73" x2="363.51" y2="43.73" fill="none" stroke="#fff" stroke-linecap="round" stroke-linejoin="round" stroke-width="4"/><line x1="284.61" y1="43.73" x2="340.99" y2="43.73" fill="none" stroke="#7bffa0" stroke-linecap="round" stroke-linejoin="round" stroke-width="4"/><line x1="256.84" y1="43.73" x2="276.61" y2="43.73" fill="none" stroke="#9169ff" stroke-linecap="round" stroke-linejoin="round" stroke-width="4"/><line x1="282.61" y1="142.28" x2="325.67" y2="142.28" fill="none" stroke="#9169ff" stroke-linecap="round" stroke-linejoin="round" stroke-width="4"/><line x1="256.84" y1="142.28" x2="270.72" y2="142.28" fill="none" stroke="#7bffa0" stroke-linecap="round" stroke-linejoin="round" stroke-width="4"/><line x1="340.99" y1="56.05" x2="349" y2="56.05" fill="none" stroke="#fff" stroke-linecap="round" stroke-linejoin="round" stroke-width="4"/><line x1="304.12" y1="56.05" x2="331.35" y2="56.05" fill="none" stroke="#9169ff" stroke-linecap="round" stroke-linejoin="round" stroke-width="4"/><line x1="266.72" y1="56.05" x2="294.47" y2="56.05" fill="none" stroke="#ffc47d" stroke-linecap="round" stroke-linejoin="round" stroke-width="4"/><line x1="309.67" y1="68.37" x2="333.51" y2="68.37" fill="none" stroke="#fff" stroke-linecap="round" stroke-linejoin="round" stroke-width="4"/><line x1="279.61" y1="68.37" x2="302.09" y2="68.37" fill="none" stroke="#ff5757" stroke-linecap="round" stroke-linejoin="round" stroke-width="4"/><line x1="312.85" y1="80.68" x2="317.79" y2="80.68" fill="none" stroke="#fff" stroke-linecap="round" stroke-linejoin="round" stroke-width="4"/><line x1="293.03" y1="80.68" x2="304.12" y2="80.68" fill="none" stroke="#9169ff" stroke-linecap="round" stroke-linejoin="round" stroke-width="4"/><line x1="266.72" y1="80.68" x2="284.61" y2="80.68" fill="none" stroke="#7bffa0" stroke-linecap="round" stroke-linejoin="round" stroke-width="4"/><line x1="305.13" y1="93.01" x2="337.02" y2="93.01" fill="none" stroke="#ffc47d" stroke-linecap="round" stroke-linejoin="round" stroke-width="4"/><line x1="266.72" y1="93.01" x2="295.35" y2="93.01" fill="none" stroke="#ff5757" stroke-linecap="round" stroke-linejoin="round" stroke-width="4"/><line x1="342.02" y1="105.33" x2="359.36" y2="105.33" fill="none" stroke="#9169ff" stroke-linecap="round" stroke-linejoin="round" stroke-width="4"/><line x1="305.13" y1="105.33" x2="332.88" y2="105.33" fill="none" stroke="#ff5757" stroke-linecap="round" stroke-linejoin="round" stroke-width="4"/><line x1="279.61" y1="105.33" x2="295.35" y2="105.33" fill="none" stroke="#7bffa0" stroke-linecap="round" stroke-linejoin="round" stroke-width="4"/><line x1="317.73" y1="117.65" x2="332.88" y2="117.65" fill="none" stroke="#fff" stroke-linecap="round" stroke-linejoin="round" stroke-width="4"/><line x1="279.61" y1="117.65" x2="307.35" y2="117.65" fill="none" stroke="#9169ff" stroke-linecap="round" stroke-linejoin="round" stroke-width="4"/><line x1="357.04" y1="129.96" x2="374.34" y2="129.96" fill="none" stroke="#fff" stroke-linecap="round" stroke-linejoin="round" stroke-width="4"/><line x1="304.12" y1="129.96" x2="347.69" y2="129.96" fill="none" stroke="#ffc47d" stroke-linecap="round" stroke-linejoin="round" stroke-width="4"/><line x1="266.72" y1="129.96" x2="294.47" y2="129.96" fill="none" stroke="#fff" stroke-linecap="round" stroke-linejoin="round" stroke-width="4"/><path d="M270.2,290.87H54.74a2,2,0,0,1,0-4H270.2a2,2,0,0,1,0,4Z" fill="#1f3969"/><path d="M270.2,298.89H54.74a2,2,0,0,1,0-4H270.2a2,2,0,0,1,0,4Z" fill="#1f3969"/><path d="M272.23,306.65H52.28a2,2,0,0,1-2-2,2.07,2.07,0,0,1,.14-.74,30.81,30.81,0,0,0,0-21.25,2,2,0,0,1,1.86-2.73h220a2,2,0,0,1,1.86,2.73,30.81,30.81,0,0,0,0,21.25,2,2,0,0,1-1.86,2.74Zm-217.17-4H269.45a35.6,35.6,0,0,1,0-18.72H55.06a35.6,35.6,0,0,1,0,18.72Z" fill="#1f3969"/><rect x="562.6" y="200.79" width="9.81" height="72.65" transform="translate(-23.77 67.78) rotate(-6.7)" fill="#ffa364"/><rect x="558.8" y="201.01" width="9.81" height="7.39" transform="translate(-20.02 67.11) rotate(-6.7)" fill="#2aa1ff"/><path d="M559.26,211a2,2,0,0,1-2-1.77l-.86-7.34a2,2,0,0,1,1.75-2.22h0l9.75-1.15a2,2,0,0,1,2.22,1.76h0l.86,7.34a2,2,0,0,1-1.75,2.22l-9.75,1.14Zm1.36-7.59.39,3.37,5.78-.68-.4-3.37Z" fill="#1f3969"/><path d="M566.87,275.76a2,2,0,0,1-2-1.76l-8.47-72.16a2,2,0,0,1,1.75-2.22h0l9.75-1.14a2,2,0,0,1,2.22,1.75h0l8.47,72.16a2,2,0,0,1-1.75,2.22h0l-9.75,1.14Zm-6.25-72.4,8,68.18,5.77-.67-8-68.18Z" fill="#1f3969"/><rect x="549.86" y="245.83" width="72.65" height="9.81" transform="translate(273.56 806.39) rotate(-83.8)" fill="#ff5252"/><path d="M587.14,289.38h-.22l-9.76-1.06a2,2,0,0,1-1.77-2.2l7.85-72.23a2,2,0,0,1,2.2-1.77l9.76,1.06a2,2,0,0,1,1.77,2.2l-7.85,72.22A2,2,0,0,1,587.14,289.38Zm-7.56-4.84,5.78.63,7.42-68.24L587,216.3Z" fill="#1f3969"/><rect x="586.01" y="213.39" width="7.39" height="9.81" transform="translate(308.95 780.96) rotate(-83.8)" fill="#2d425e"/><path d="M594.19,224.5H594l-9.75-1.06a2,2,0,0,1-1.78-2.2l.8-7.35a2,2,0,0,1,2.2-1.77l9.76,1.06a2,2,0,0,1,1.77,2.2l-.79,7.35A2,2,0,0,1,594.19,224.5Zm-7.55-4.83,5.78.63.37-3.37L587,216.3Z" fill="#1f3969"/><polygon points="600.91 310.92 561.65 310.92 555.26 250.74 607.29 250.74 600.91 310.92" fill="#6567c3"/><polygon points="555.26 250.74 555.38 251.84 595.02 251.84 588.75 310.92 600.91 310.92 607.29 250.74 555.26 250.74" fill="#6567c3"/><path d="M600.91,312.92H561.65a2,2,0,0,1-2-1.79L553.27,251a2,2,0,0,1,1.78-2.2l.21,0h52a2,2,0,0,1,2,2,1.55,1.55,0,0,1,0,.22l-6.38,60.18A2,2,0,0,1,600.91,312.92Zm-37.46-4h35.66l6-56.18H557.49Z" fill="#1f3969"/></svg>