<svg xmlns="http://www.w3.org/2000/svg" viewBox="0 0 497.4 405.1"><path d="M15,375.1H482.4a15,15,0,0,1,15,15h0a15,15,0,0,1-15,15H15a15,15,0,0,1-15-15H0A15,15,0,0,1,15,375.1Z" fill="#353535" opacity="0.34" style="isolation:isolate"/><path d="M105,3H341a18.05,18.05,0,0,1,18,18V325.8a18.05,18.05,0,0,1-18,18H105a18.05,18.05,0,0,1-18-18V21A18,18,0,0,1,105,3Z" fill="#f7e4cb"/><path d="M105,3H341a18.05,18.05,0,0,1,18,18V325.8a18.05,18.05,0,0,1-18,18H105a18.05,18.05,0,0,1-18-18V21A18,18,0,0,1,105,3Z" fill="#e0c5aa"/><path d="M347,31V311a10.18,10.18,0,0,1-10.2,10.2H109.3A10.18,10.18,0,0,1,99.1,311V31a10.18,10.18,0,0,1,10.2-10.2H336.8A10.24,10.24,0,0,1,347,31Z" fill="#f7e4cb"/><path d="M341,346.8H105a21,21,0,0,1-21-21V21A21,21,0,0,1,105,0H341a21,21,0,0,1,21,21V325.8A21,21,0,0,1,341,346.8ZM105,6A15,15,0,0,0,90,21V325.8a15,15,0,0,0,15,15H341a15,15,0,0,0,15-15V21A15,15,0,0,0,341,6Z" fill="#353535"/><path d="M332,47.5V210.1a9.65,9.65,0,0,1-9.7,9.7H123.7a9.65,9.65,0,0,1-9.7-9.7V47.5a9.65,9.65,0,0,1,9.7-9.7H322.3A9.65,9.65,0,0,1,332,47.5Z" fill="#e0c5aa"/><path d="M321.6,65.5V191.9a17.2,17.2,0,0,1-17.2,17.2H141.7a17.2,17.2,0,0,1-17.2-17.2V65.5a17.2,17.2,0,0,1,17.2-17.2H304.3A17.22,17.22,0,0,1,321.6,65.5Z" fill="#353535"/><path d="M304.3,48.3H284.1a56.36,56.36,0,0,1,5.5,24.2h0A104.73,104.73,0,0,1,184.9,177.2H148.7a56.36,56.36,0,0,1-24.2-5.5v20.2a17.2,17.2,0,0,0,17.2,17.2H304.3a17.2,17.2,0,0,0,17.2-17.2h0V65.5A17.14,17.14,0,0,0,304.3,48.3Z" fill="#282828" opacity="0.3" style="isolation:isolate"/><path d="M293.5,260.8v-3.1H224.7v-12h68.8v-3.1a1.9,1.9,0,0,1,1.9-1.9h36.2a1.9,1.9,0,0,1,1.9,1.9h0v18.2a1.9,1.9,0,0,1-1.9,1.9H295.4A1.84,1.84,0,0,1,293.5,260.8Z" fill="#e0c5aa"/><rect x="324" y="248.7" width="4.3" height="6" fill="#353535"/><path d="M142.1,298H122.7a2.9,2.9,0,0,1-2.9-2.9V275.7a2.9,2.9,0,0,1,2.9-2.9h19.4a2.9,2.9,0,0,1,2.9,2.9v19.4A2.9,2.9,0,0,1,142.1,298Zm-19.4-23.2a.9.9,0,0,0-.9.9v19.4a.9.9,0,0,0,.9.9h19.4a.9.9,0,0,0,.9-.9V275.7a.9.9,0,0,0-.9-.9Z" fill="#353535"/><path d="M387.7,390.1c0-9.9,10.5-18,23.5-18s23.5,8.1,23.5,18Z" fill="#f2ebe1"/><path d="M434.7,393.1h-47a3,3,0,0,1-3-3c0-11.6,11.9-21,26.5-21s26.5,9.4,26.5,21A3.08,3.08,0,0,1,434.7,393.1Zm-43.6-6h40.2c-1.9-6.8-10.2-12-20.1-12S393,380.3,391.1,387.1Z" fill="#353535"/><rect x="104" y="345" width="238" height="24" fill="#e0c5aa"/><rect x="104" y="345" width="238" height="9.9" fill="#c6a485"/><path d="M342,372H104a3,3,0,0,1-3-3V345a3,3,0,0,1,3-3H342a3,3,0,0,1,3,3v24A3,3,0,0,1,342,372Zm-235-6H339V348H107Z" fill="#353535"/><rect x="147" y="360.1" width="152" height="12" fill="#e0c5aa"/><rect x="337" y="360.1" width="20" height="12" fill="#e0c5aa"/><rect x="308" y="360.1" width="20" height="12" fill="#e0c5aa"/><rect x="118" y="360.1" width="20" height="12" fill="#e0c5aa"/><rect x="89" y="360.1" width="20" height="12" fill="#e0c5aa"/><rect x="68.8" y="372.1" width="308.3" height="18" fill="#f7e4cb"/><path d="M377.2,393.1H68.8a3,3,0,0,1-3-3v-18a3,3,0,0,1,3-3H377.1a3,3,0,0,1,3,3v18A2.92,2.92,0,0,1,377.2,393.1Zm-305.4-6H374.1v-12H71.8Z" fill="#353535"/><path d="M299,375.1H147a3,3,0,0,1-3-3v-12a3,3,0,0,1,3-3H299a3,3,0,0,1,3,3v12A3,3,0,0,1,299,375.1Zm-149-6H296v-6H150Z" fill="#353535"/><path d="M357,375.1H337a3,3,0,0,1-3-3v-12a3,3,0,0,1,3-3h20a3,3,0,0,1,3,3v12A3,3,0,0,1,357,375.1Zm-17-6h14v-6H340Z" fill="#353535"/><path d="M328,375.1H308a3,3,0,0,1-3-3v-12a3,3,0,0,1,3-3h20a3,3,0,0,1,3,3v12A3,3,0,0,1,328,375.1Zm-17-6h14v-6H311Z" fill="#353535"/><path d="M138,375.1H118a3,3,0,0,1-3-3v-12a3,3,0,0,1,3-3h20a3,3,0,0,1,3,3v12A3,3,0,0,1,138,375.1Zm-17-6h14v-6H121Z" fill="#353535"/><path d="M109,375.1H89a3,3,0,0,1-3-3v-12a3,3,0,0,1,3-3h20a3,3,0,0,1,3,3v12A3,3,0,0,1,109,375.1Zm-17-6h14v-6H92Z" fill="#353535"/><path d="M134.6,283.6a6.09,6.09,0,0,1-1.8-3.1h-6.3a7.67,7.67,0,0,0-1.6,3.1Z" fill="#cf9742"/><path d="M132.6,279.2a7.72,7.72,0,0,1,.2-1.5h-.4a7.44,7.44,0,0,0-5.9,2.8h6.3A6.88,6.88,0,0,1,132.6,279.2Z" fill="#6e9546"/><path d="M126.5,290.4h11.8a7.67,7.67,0,0,0,1.6-3.1h-15A9.16,9.16,0,0,0,126.5,290.4Z" fill="#7c4d83"/><path d="M132.4,293.1a7.82,7.82,0,0,0,5.9-2.7H126.5A8,8,0,0,0,132.4,293.1Z" fill="#4d8db9"/><path d="M124.7,285.4a13.66,13.66,0,0,0,.2,1.9h15a5.84,5.84,0,0,0,.2-1.9V285a6,6,0,0,1-5.6-1.4h-9.6A11,11,0,0,0,124.7,285.4Z" fill="#cb6757"/><path d="M168.6,73.3H152.5a4,4,0,0,1,0-8h16.1a4,4,0,0,1,0,8Z" fill="#fff"/><path d="M242.7,73.3H185.3a4,4,0,0,1,0-8h57.4a4,4,0,0,1,0,8Z" fill="#fff"/><path d="M298.8,244h27.6a1.9,1.9,0,0,1,1.9,1.9h0v4.8H296.9v-4.8a1.9,1.9,0,0,1,1.9-1.9Z" fill="#353535"/><path d="M296.9,251.7h31.4v5.8a1.9,1.9,0,0,1-1.9,1.9H298.8a1.9,1.9,0,0,1-1.9-1.9h0v-5.8Z" fill="#353535"/><path d="M229.8,248.7h94.6a1,1,0,0,1,1,1v4.1a1,1,0,0,1-1,1H229.8a1,1,0,0,1-1-1v-4.1A1,1,0,0,1,229.8,248.7Z" fill="#282828"/></svg>