<svg xmlns="http://www.w3.org/2000/svg" viewBox="0 0 317.9 319.5"><defs><style>.a{fill:#4b94a5;stroke:#4b94a5;stroke-linecap:round;stroke-linejoin:round;stroke-width:6px;}.b{fill:#747178;}.c,.f{fill:#514e55;}.c{stroke:#464349;stroke-miterlimit:10;stroke-width:4px;opacity:0.43;}.c,.g,.i,.j{isolation:isolate;}.d,.j{fill:#413e51;}.e{fill:#c9c9c9;}.g,.j{opacity:0.48;}.h{fill:#bfc1c0;}.i{fill:#ddd;opacity:0.52;}</style></defs><path class="a" d="M296.9,16.5H53.5a11.27,11.27,0,0,0-8.1,3.4L18.3,47a11.44,11.44,0,0,0-3.4,8.1V298.5a18.05,18.05,0,0,0,18,18h264a18.05,18.05,0,0,0,18-18V34.5a18.05,18.05,0,0,0-18-18Z"/><path class="b" d="M285,3H41.6a11.27,11.27,0,0,0-8.1,3.4L6.4,33.5A11.44,11.44,0,0,0,3,41.6V285a18.05,18.05,0,0,0,18,18H285a18.05,18.05,0,0,0,18-18V21A18.05,18.05,0,0,0,285,3Z"/><circle class="c" cx="153" cy="158" r="126.7"/><path class="d" d="M285,306H21A21,21,0,0,1,0,285V41.6A14.29,14.29,0,0,1,4.2,31.4L31.3,4.3A14.46,14.46,0,0,1,41.5.1H284.9a21,21,0,0,1,21,21v264A20.83,20.83,0,0,1,285,306ZM41.6,6a8.39,8.39,0,0,0-6,2.5L8.5,35.6a8.39,8.39,0,0,0-2.5,6V285a15,15,0,0,0,15,15H285a15,15,0,0,0,15-15V21A15,15,0,0,0,285,6Z"/><path class="d" d="M285,306H21A21,21,0,0,1,0,285V41.6A14.29,14.29,0,0,1,4.2,31.4L31.3,4.3A14.46,14.46,0,0,1,41.5.1H284.9a21,21,0,0,1,21,21v264A20.83,20.83,0,0,1,285,306ZM41.6,6a8.39,8.39,0,0,0-6,2.5L8.5,35.6a8.39,8.39,0,0,0-2.5,6V285a15,15,0,0,0,15,15H285a15,15,0,0,0,15-15V21A15,15,0,0,0,285,6Z"/><circle class="e" cx="153" cy="158" r="42" transform="translate(-17.08 297.45) rotate(-85.27)"/><path class="d" d="M153,203a45,45,0,1,1,45-45A45.07,45.07,0,0,1,153,203Zm0-84a39,39,0,1,0,39,39A39.05,39.05,0,0,0,153,119Z"/><path class="d" d="M67,260H239a18.05,18.05,0,0,1,18,18v25H49V278A18,18,0,0,1,67,260Z"/><path class="d" d="M257,306H49a3,3,0,0,1-3-3V278a21,21,0,0,1,21-21H239a21,21,0,0,1,21,21v25A3,3,0,0,1,257,306ZM52,300H254V278a15,15,0,0,0-15-15H67a15,15,0,0,0-15,15v22Z"/><rect class="d" x="270.5" y="260" width="14" height="14"/><path class="d" d="M284.5,277h-14a3,3,0,0,1-3-3V260a3,3,0,0,1,3-3h14a3,3,0,0,1,3,3v14A3,3,0,0,1,284.5,277Zm-11-6h8v-8h-8Z"/><path class="d" d="M262,250.7H195a4,4,0,0,1,0-8h67a4,4,0,0,1,0,8Z"/><rect class="d" x="147.5" y="152" width="9" height="9"/><path class="d" d="M156.5,164h-9a3,3,0,0,1-3-3v-9a3,3,0,0,1,3-3h9a3,3,0,0,1,3,3v9A3,3,0,0,1,156.5,164Zm-6-6h3v-3h-3Z"/><rect class="d" x="154.91" y="170.5" width="20" height="10" transform="translate(-48.78 64.45) rotate(-19.32)"/><path class="d" d="M157.1,186.6a3.08,3.08,0,0,1-1.3-.3,2.8,2.8,0,0,1-1.5-1.7l-3.3-9.4a3,3,0,0,1,1.8-3.8l18.9-6.6a3,3,0,0,1,2.3.1,2.8,2.8,0,0,1,1.5,1.7l3.3,9.4a3,3,0,0,1-1.8,3.8l-18.9,6.6A3.55,3.55,0,0,1,157.1,186.6Zm.5-10.6,1.3,3.8,13.2-4.6-1.3-3.8Z"/><path class="d" d="M303,65a12,12,0,0,1,0-24Z"/><path class="d" d="M303,68a15,15,0,0,1,0-30,3,3,0,0,1,3,3V65A3,3,0,0,1,303,68Zm-3-23.4a9,9,0,0,0-6,8.5,9.1,9.1,0,0,0,6,8.5Z"/><path class="d" d="M3,65A12,12,0,0,0,3,41Z"/><path class="d" d="M3,68a3,3,0,0,1-3-3V41a3,3,0,0,1,3-3A15,15,0,0,1,3,68ZM6,44.6v17a9,9,0,0,0,0-17Z"/><circle class="d" cx="24.7" cy="80.5" r="8.5"/><circle class="d" cx="275.2" cy="80.5" r="8.5"/><path class="f" d="M88,3H262V77a18.05,18.05,0,0,1-18,18H106A18.05,18.05,0,0,1,88,77V3Z"/><g class="g"><path class="d" d="M200,98H112A21,21,0,0,1,91,77V3a3,3,0,0,1,3-3H218a3,3,0,0,1,3,3V77A21,21,0,0,1,200,98ZM97,6V77a15,15,0,0,0,15,15h88a15,15,0,0,0,15-15V6Z"/></g><path class="d" d="M244,98H106A21,21,0,0,1,85,77V3a3,3,0,0,1,3-3H262a3,3,0,0,1,3,3V77A21,21,0,0,1,244,98ZM91,6V77a15,15,0,0,0,15,15H244a15,15,0,0,0,15-15V6Z"/><path class="d" d="M245.5,20H212a4,4,0,0,1,0-8h33.5a4,4,0,0,1,0,8Z"/><path class="h" d="M88,3H212V77a18.05,18.05,0,0,1-18,18H106A18.05,18.05,0,0,1,88,77V3Z"/><polygon class="i" points="160.5 95 212 23.9 212 7.6 147.1 95 160.5 95"/><path class="i" d="M109.3,94.7c1.2.2-4.6.4-3.3.4h29.8l68.7-92H177.7Z"/><path class="d" d="M194,98H106A21,21,0,0,1,85,77V3a3,3,0,0,1,3-3H212a3,3,0,0,1,3,3V77A21,21,0,0,1,194,98ZM91,6V77a15,15,0,0,0,15,15h88a15,15,0,0,0,15-15V6Z"/><rect class="f" x="110.6" y="14" width="24" height="58"/><rect class="j" x="110.6" y="14" width="13.4" height="58"/><path class="d" d="M134.6,75h-24a3,3,0,0,1-3-3V14a3,3,0,0,1,3-3h24a3,3,0,0,1,3,3V72A3,3,0,0,1,134.6,75Zm-21-6h18V17h-18Z"/><path class="d" d="M199.1,23h-12a3,3,0,0,1-3-3V14a3,3,0,0,1,3-3h12a3,3,0,0,1,3,3v6A3,3,0,0,1,199.1,23Z"/><path class="d" d="M26.3,306a3,3,0,0,1-3-3V279a3,3,0,0,1,6,0v24A3,3,0,0,1,26.3,306Z"/></svg>